<?xml version="1.0" standalone="no"?>
<!DOCTYPE svg PUBLIC "-//W3C//DTD SVG 20010904//EN"
 "http://www.w3.org/TR/2001/REC-SVG-20010904/DTD/svg10.dtd">
<svg version="1.0" xmlns="http://www.w3.org/2000/svg"
 width="89.000000pt" height="79.000000pt" viewBox="0 0 89.000000 79.000000"
 preserveAspectRatio="xMidYMid meet">
<metadata>
Created by potrace 1.10, written by Peter Selinger 2001-2011
</metadata>
<g transform="translate(0.000000,79.000000) scale(0.100000,-0.100000)"
fill="#000000" stroke="none">
<path d="M395 706 c-23 -20 -27 -30 -24 -63 l4 -40 -38 10 c-44 11 -117 -7
-117 -30 0 -7 -9 -13 -20 -13 -19 0 -20 -7 -20 -180 l0 -180 -44 0 c-25 0 -47
-4 -50 -8 -3 -5 78 -35 179 -66 l185 -58 185 58 c102 32 185 61 185 66 0 4
-25 8 -55 8 l-55 0 0 150 c0 89 -4 150 -10 150 -5 0 -19 10 -30 23 -18 18 -32
22 -86 22 l-65 0 2 67 c2 60 -1 70 -21 88 -31 27 -71 25 -105 -4z m45 -136 c0
-80 -4 -130 -10 -130 -6 0 -10 32 -10 75 0 60 -3 75 -15 75 -19 0 -22 96 -2
103 35 15 37 9 37 -123z m54 124 c13 -5 16 -22 16 -79 0 -65 -2 -74 -20 -80
-16 -5 -20 -15 -20 -51 0 -24 -4 -44 -10 -44 -6 0 -10 50 -10 130 0 136 2 140
44 124z m-164 -313 l0 -209 -67 17 -68 17 -3 176 -2 176 57 12 c32 6 63 13 68
15 6 2 11 4 13 4 1 1 2 -93 2 -208z m68 199 c8 0 12 -21 12 -70 0 -57 -3 -70
-16 -70 -36 0 -43 -25 -47 -151 -2 -82 -3 -51 -5 90 l-2 213 23 -6 c12 -3 28
-6 35 -6z m160 -232 c-2 -153 -3 -162 -5 -59 -2 71 -8 130 -15 138 -6 7 -21
13 -34 13 -21 0 -24 5 -24 39 0 41 7 47 58 50 l22 1 -2 -182z m67 169 c11 -3
32 -8 48 -11 l27 -6 0 -148 0 -148 -65 -16 -65 -15 0 179 c0 166 1 179 18 174
9 -2 26 -7 37 -9z m-97 -99 c14 -14 17 -258 3 -258 -5 0 -23 -3 -40 -6 l-31
-6 0 131 0 131 33 2 c17 1 -2 4 -43 8 l-75 6 71 2 c43 1 75 -3 82 -10z m-88
-138 c0 -72 -4 -130 -9 -130 -5 0 -23 3 -40 6 l-31 6 0 124 0 124 40 0 40 0 0
-130z m-129 -115 l139 -35 139 35 c206 51 220 42 29 -19 l-168 -53 -167 53
c-192 61 -178 70 28 19z"/>
</g>
</svg>
